<svg preserveAspectRatio="none" width="100%" height="100%" overflow="visible" style="display: block;" viewBox="0 0 27.5017 15.002" fill="none" xmlns="http://www.w3.org/2000/svg">
<path id="Vector" d="M27.1351 14.6354C27.019 14.7516 26.8811 14.8438 26.7294 14.9067C26.5776 14.9696 26.415 15.002 26.2507 15.002C26.0864 15.002 25.9238 14.9696 25.772 14.9067C25.6203 14.8438 25.4824 14.7516 25.3663 14.6354L13.7507 3.01817L2.13507 14.6354C1.90052 14.8699 1.5824 15.0017 1.25069 15.0017C0.91899 15.0017 0.600871 14.8699 0.36632 14.6354C0.131769 14.4008 6.5387e-09 14.0827 0 13.751C-6.5387e-09 13.4193 0.131769 13.1012 0.36632 12.8666L12.8663 0.366608C12.9824 0.250387 13.1203 0.158189 13.272 0.095284C13.4238 0.0323786 13.5864 0 13.7507 0C13.915 0 14.0776 0.0323786 14.2294 0.095284C14.3811 0.158189 14.519 0.250387 14.6351 0.366608L27.1351 12.8666C27.2513 12.9827 27.3435 13.1206 27.4064 13.2723C27.4693 13.4241 27.5017 13.5867 27.5017 13.751C27.5017 13.9153 27.4693 14.0779 27.4064 14.2297C27.3435 14.3814 27.2513 14.5193 27.1351 14.6354Z" fill="#212121"/>
</svg>
