<svg preserveAspectRatio="none" width="100%" height="100%" overflow="visible" style="display: block;" viewBox="0 0 22 22" fill="none" xmlns="http://www.w3.org/2000/svg">
<g id="mynaui:calendar">
<path id="Vector" d="M15.125 4.58333V2.75M6.875 4.58333V2.75M2.97917 7.33333H19.0208M2.75 9.207C2.75 7.26825 2.75 6.29842 3.14967 5.55775C3.51106 4.89711 4.07183 4.36746 4.752 4.04433C5.53667 3.66667 6.56333 3.66667 8.61667 3.66667H13.3833C15.4367 3.66667 16.4633 3.66667 17.248 4.04433C17.9383 4.37617 18.4983 4.906 18.8503 5.55683C19.25 6.29933 19.25 7.26917 19.25 9.20792V13.7106C19.25 15.6493 19.25 16.6192 18.8503 17.3598C18.4889 18.0205 17.9282 18.5501 17.248 18.8733C16.4633 19.25 15.4367 19.25 13.3833 19.25H8.61667C6.56333 19.25 5.53667 19.25 4.752 18.8723C4.07197 18.5494 3.51121 18.0201 3.14967 17.3598C2.75 16.6173 2.75 15.6475 2.75 13.7088V9.207Z" stroke="#616161" stroke-width="1.25" stroke-linecap="round" stroke-linejoin="round"/>
</g>
</svg>
