<svg preserveAspectRatio="none" width="100%" height="100%" overflow="visible" style="display: block;" viewBox="0 0 32 32" fill="none" xmlns="http://www.w3.org/2000/svg">
<g id="octicon:law-24">
<path id="Vector" d="M17 3.66667V6H19.6333C20.1013 6 20.5587 6.14133 20.9453 6.404L23.208 7.94267C23.264 7.98 23.3262 7.99911 23.3947 8H28.864C29.1292 8 29.3836 8.10536 29.5711 8.29289C29.7586 8.48043 29.864 8.73478 29.864 9C29.864 9.26522 29.7586 9.51957 29.5711 9.70711C29.3836 9.89464 29.1292 10 28.864 10H26.76L31.248 20.24C31.3378 20.4448 31.3564 20.6737 31.3008 20.8902C31.2452 21.1068 31.1186 21.2985 30.9413 21.4347C30.808 21.5333 30.6702 21.6249 30.528 21.7093C30.1905 21.9124 29.8384 22.0902 29.4747 22.2413C28.2686 22.7457 26.9739 23.0036 25.6667 23C24.3598 23.0057 23.0652 22.7481 21.86 22.2427C21.4962 22.0911 21.1442 21.9128 20.8067 21.7093C20.6648 21.628 20.5281 21.5381 20.3973 21.44L20.3907 21.4347C20.2134 21.2985 20.0868 21.1068 20.0312 20.8902C19.9756 20.6737 19.9942 20.4448 20.084 20.24L24.5747 10H23.3933C22.9253 10 22.468 9.85867 22.0813 9.596L19.8187 8.05733C19.7636 8.02002 19.6986 8.00005 19.632 8H17V27.3333H22.9827C23.2479 27.3333 23.5022 27.4387 23.6898 27.6262C23.8773 27.8138 23.9827 28.0681 23.9827 28.3333C23.9827 28.5985 23.8773 28.8529 23.6898 29.0404C23.5022 29.228 23.2479 29.3333 22.9827 29.3333H9.01733C8.75212 29.3333 8.49776 29.228 8.31023 29.0404C8.12269 28.8529 8.01733 28.5985 8.01733 28.3333C8.01733 28.0681 8.12269 27.8138 8.31023 27.6262C8.49776 27.4387 8.75212 27.3333 9.01733 27.3333H15V8H12.3667C12.3001 8.00005 12.2351 8.02002 12.18 8.05733L9.91867 9.596C9.532 9.85867 9.07467 10 8.60667 10H7.42533L11.916 20.24C12.0029 20.4389 12.0227 20.6607 11.9725 20.8719C11.9222 21.0831 11.8046 21.2722 11.6373 21.4107C11.5307 21.4973 11.424 21.5787 11.224 21.708C10.887 21.9267 10.534 22.1197 10.168 22.2853C8.96407 22.8334 7.65612 23.1153 6.33333 23.112C5.01055 23.1153 3.7026 22.8334 2.49867 22.2853C2.13267 22.1197 1.77967 21.9267 1.44267 21.708C1.30074 21.6164 1.16326 21.518 1.03067 21.4133C0.86442 21.2736 0.747471 21.0841 0.697059 20.8729C0.646647 20.6616 0.66544 20.4398 0.750667 20.24L5.24 10H3.13733C2.87212 10 2.61776 9.89464 2.43023 9.70711C2.24269 9.51957 2.13733 9.26522 2.13733 9C2.13733 8.73478 2.24269 8.48043 2.43023 8.29289C2.61776 8.10536 2.87212 8 3.13733 8H8.60667C8.67422 8 8.73689 7.98089 8.79467 7.94267L11.0547 6.404C11.4413 6.14 11.9 6 12.368 6H15V3.66667C15 3.40145 15.1054 3.1471 15.2929 2.95956C15.4804 2.77202 15.7348 2.66667 16 2.66667C16.2652 2.66667 16.5196 2.77202 16.7071 2.95956C16.8946 3.1471 17 3.40145 17 3.66667ZM2.924 20.264C3.97311 20.8234 5.14442 21.1143 6.33333 21.1107C7.52225 21.1143 8.69356 20.8234 9.74267 20.264L6.33333 12.4907L2.924 20.264ZM22.2707 20.232C22.38 20.2853 22.5022 20.3413 22.6373 20.4C23.344 20.6973 24.3773 21 25.6667 21C26.8421 21.0031 28.003 20.7406 29.0627 20.232L25.6667 12.4893L22.2707 20.232Z" fill="#AA7B49"/>
</g>
</svg>
