<svg preserveAspectRatio="none" width="100%" height="100%" overflow="visible" style="display: block;" viewBox="0 0 80 80" fill="none" xmlns="http://www.w3.org/2000/svg">
<g id="bi:play-circle-fill" clip-path="url(#clip0_0_46)">
<path id="Vector" d="M80 39.9999C80 50.6086 75.7858 60.7827 68.2843 68.2842C60.7829 75.7856 50.6087 79.9999 40 79.9999C29.3914 79.9999 19.2172 75.7856 11.7158 68.2842C4.21432 60.7827 4.73454e-05 50.6086 4.73454e-05 39.9999C4.73454e-05 29.3912 4.21432 19.2171 11.7158 11.7156C19.2172 4.21418 29.3914 -9.87009e-05 40 -9.87009e-05C50.6087 -9.87009e-05 60.7829 4.21418 68.2843 11.7156C75.7858 19.2171 80 29.3912 80 39.9999V39.9999ZM33.95 25.4649C33.5762 25.1987 33.1364 25.0406 32.6786 25.0078C32.2209 24.975 31.763 25.0689 31.3551 25.279C30.9472 25.4892 30.6049 25.8076 30.3659 26.1993C30.1269 26.5911 30.0003 27.041 30 27.4999V52.4999C30.0003 52.9588 30.1269 53.4087 30.3659 53.8005C30.6049 54.1922 30.9472 54.5106 31.3551 54.7208C31.763 54.9309 32.2209 55.0248 32.6786 54.992C33.1364 54.9592 33.5762 54.8011 33.95 54.5349L51.45 42.0349C51.7741 41.8036 52.0383 41.4983 52.2205 41.1444C52.4028 40.7904 52.4979 40.398 52.4979 39.9999C52.4979 39.6018 52.4028 39.2094 52.2205 38.8554C52.0383 38.5015 51.7741 38.1962 51.45 37.9649L33.95 25.4649V25.4649Z" fill="white"/>
</g>
<defs>
<clipPath id="clip0_0_46">
<rect width="80" height="80" fill="white"/>
</clipPath>
</defs>
</svg>
