<svg preserveAspectRatio="none" width="100%" height="100%" overflow="visible" style="display: block;" viewBox="0 0 40 40" fill="none" xmlns="http://www.w3.org/2000/svg">
<path id="&#226;&#128;&#156;" opacity="0.3" d="M9.37799 40C7.78309 40 6.25199 39.2646 4.78469 37.7938C3.31738 36.3229 2.13716 34.3725 1.24402 31.9424C0.414673 29.4484 0 26.8585 0 24.1727C0 20.2718 0.669857 16.6587 2.00957 13.3333C3.34928 9.94405 4.97608 7.09832 6.88995 4.79616C8.80383 2.494 10.5582 0.895284 12.1531 0H12.2488L14.8325 2.58993V3.64509C13.3014 4.86012 11.8022 6.84253 10.3349 9.59233C8.93142 12.3421 8.22967 15.6994 8.22967 19.6643C8.22967 21.8385 8.54865 23.5971 9.1866 24.94C9.82456 26.219 10.7496 27.6579 11.9617 29.2566C12.8549 30.3437 13.4928 31.271 13.8756 32.0384C14.3222 32.7418 14.5455 33.6371 14.5455 34.7242C14.5455 36.3869 14.067 37.6978 13.11 38.6571C12.1531 39.5524 10.9091 40 9.37799 40ZM34.5455 40C32.8868 40 31.3238 39.2646 29.8565 37.7938C28.3892 36.3229 27.2089 34.3725 26.3158 31.9424C25.4864 29.4484 25.0718 26.8585 25.0718 24.1727C25.0718 20.2718 25.7416 16.6587 27.0813 13.3333C28.4211 9.94405 30.0478 7.09832 31.9617 4.79616C33.8756 2.494 35.63 0.895284 37.2249 0H37.3206L40 2.58993V3.64509C38.4689 4.86012 36.9697 6.84253 35.5024 9.59233C34.0351 12.3421 33.3014 15.6994 33.3014 19.6643C33.3014 21.8385 33.6204 23.5971 34.2584 24.94C34.8963 26.283 35.8533 27.7218 37.1292 29.2566C38.0223 30.3437 38.6603 31.271 39.0431 32.0384C39.4896 32.7418 39.7129 33.6371 39.7129 34.7242C39.7129 36.3869 39.2345 37.6978 38.2775 38.6571C37.3206 39.5524 36.0766 40 34.5455 40Z" fill="#CCA275"/>
</svg>
