<svg preserveAspectRatio="none" width="100%" height="100%" overflow="visible" style="display: block;" viewBox="0 0 24 24" fill="none" xmlns="http://www.w3.org/2000/svg">
<g id="linkedin">
<path id="Vector" d="M7.50061 9C7.50079 9 7.50037 9 7.50061 9H3.5C3.224 8.99982 3.00018 9.22345 3 9.49939C3 9.49921 3 9.49963 3 9.49939V21.5C2.99982 21.776 3.22345 21.9998 3.49939 22C3.49921 22 3.49963 22 3.49939 22H7.5C7.776 22.0002 7.99982 21.7766 8 21.5005C8 21.5007 8 21.5004 8 21.5005V9.5C8.00018 9.224 7.77655 9.00018 7.50061 9ZM7 21H4V10H7V21ZM18 9C16.9152 9.00006 15.8607 9.35809 15 10.0186V9.5C15.0002 9.224 14.7765 9.00018 14.5006 9C14.5008 9 14.5004 9 14.5006 9H10.5C10.224 8.99982 10.0002 9.22345 10 9.49939C10 9.49921 10 9.49963 10 9.49939V21.5C9.99982 21.776 10.2234 21.9998 10.4995 22C10.4993 22 10.4996 22 10.4995 22H14.5C14.776 22.0002 14.9998 21.7766 15 21.5005C15 21.5007 15 21.5004 15 21.5005V16C15 15.1716 15.6716 14.5 16.5 14.5C17.3284 14.5 18 15.1716 18 16V21.5C17.9998 21.776 18.2234 21.9998 18.4995 22C18.4993 22 18.4996 22 18.4995 22H22.5C22.776 22.0002 22.9998 21.7766 23 21.5005C23 21.5007 23 21.5004 23 21.5005V14C22.9968 11.2399 20.7601 9.00324 18 9ZM22 21H19V16C19 14.6193 17.8807 13.5 16.5 13.5C15.1193 13.5 14 14.6193 14 16V21H11V10H14V11.2031C14 11.4156 14.1344 11.6048 14.335 11.6748C14.5352 11.7469 14.759 11.6828 14.8907 11.5156C16.2532 9.78882 18.7576 9.49359 20.4844 10.8562C21.4463 11.6152 22.0053 12.7747 22 14V21ZM5.86798 2.00183C5.75037 1.99359 5.63232 1.99298 5.51465 2C4.00537 1.89691 2.6983 3.03687 2.59521 4.54614C2.59106 4.60687 2.58899 4.66766 2.58887 4.72852C2.57587 6.22498 3.77844 7.44861 5.2749 7.46161C5.336 7.46216 5.39703 7.46057 5.45801 7.45697H5.48633C6.99274 7.56238 8.29932 6.42664 8.40472 4.92023C8.51013 3.41382 7.37439 2.10724 5.86798 2.00183ZM5.83344 6.45984C5.71796 6.47046 5.60162 6.46954 5.48633 6.45697H5.45801C4.50189 6.53046 3.6673 5.815 3.59381 4.85889C3.52032 3.90283 4.23578 3.06818 5.19189 2.99469C5.29944 2.98645 5.40747 2.98822 5.51465 3C6.47003 2.91199 7.31592 3.61511 7.40399 4.5705C7.492 5.52594 6.78888 6.37183 5.83344 6.45984Z" fill="#AA7B49"/>
</g>
</svg>
