<svg preserveAspectRatio="none" width="100%" height="100%" overflow="visible" style="display: block;" viewBox="0 0 27.5014 15.0017" fill="none" xmlns="http://www.w3.org/2000/svg">
<path id="Vector" d="M27.1351 2.13507L14.6351 14.6351C14.519 14.7513 14.3811 14.8435 14.2294 14.9064C14.0776 14.9693 13.915 15.0017 13.7507 15.0017C13.5864 15.0017 13.4238 14.9693 13.272 14.9064C13.1203 14.8435 12.9824 14.7513 12.8663 14.6351L0.36632 2.13507C0.131769 1.90052 0 1.5824 0 1.25069C0 0.91899 0.131769 0.60087 0.36632 0.366319C0.600871 0.131769 0.91899 0 1.25069 0C1.5824 0 1.90052 0.131769 2.13507 0.366319L13.7507 11.9835L25.3663 0.366319C25.4825 0.250182 25.6203 0.158056 25.7721 0.0952029C25.9238 0.0323496 26.0865 0 26.2507 0C26.4149 0 26.5776 0.0323496 26.7293 0.0952029C26.8811 0.158056 27.0189 0.250182 27.1351 0.366319C27.2512 0.482457 27.3433 0.620333 27.4062 0.772074C27.469 0.923816 27.5014 1.08645 27.5014 1.25069C27.5014 1.41494 27.469 1.57757 27.4062 1.72932C27.3433 1.88106 27.2512 2.01893 27.1351 2.13507Z" fill="#212121"/>
</svg>
