<svg preserveAspectRatio="none" width="100%" height="100%" overflow="visible" style="display: block;" viewBox="0 0 28.6667 23.3334" fill="none" xmlns="http://www.w3.org/2000/svg">
<g id="Group">
<path id="Vector" d="M10.3333 1.61341C11.6267 1.20248 12.9762 0.995557 14.3333 1.00007C19.9093 1.00007 23.704 4.33341 25.9667 7.27207C27.1 8.74674 27.6667 9.48141 27.6667 11.6667C27.6667 13.8534 27.1 14.5881 25.9667 16.0614C23.704 19.0001 19.9093 22.3334 14.3333 22.3334C8.75733 22.3334 4.96267 19.0001 2.7 16.0614C1.56667 14.5894 1 13.8521 1 11.6667C1 9.48007 1.56667 8.74541 2.7 7.27207C3.39134 6.36917 4.16099 5.52902 5 4.76141" stroke="#AA7B49" stroke-width="2" stroke-linecap="round"/>
<path id="Vector_2" d="M18.3333 11.6667C18.3333 12.7276 17.9119 13.745 17.1618 14.4952C16.4116 15.2453 15.3942 15.6667 14.3333 15.6667C13.2725 15.6667 12.2551 15.2453 11.5049 14.4952C10.7548 13.745 10.3333 12.7276 10.3333 11.6667C10.3333 10.6059 10.7548 9.58846 11.5049 8.83831C12.2551 8.08817 13.2725 7.66674 14.3333 7.66674C15.3942 7.66674 16.4116 8.08817 17.1618 8.83831C17.9119 9.58846 18.3333 10.6059 18.3333 11.6667Z" stroke="#AA7B49" stroke-width="2"/>
</g>
</svg>
