<svg preserveAspectRatio="none" width="100%" height="100%" overflow="visible" style="display: block;" viewBox="0 0 32 32" fill="none" xmlns="http://www.w3.org/2000/svg">
<g id="carbon:security">
<path id="Vector" d="M14 16.59L11.41 14L10 15.41L14 19.41L22 11.41L20.59 10L14 16.59Z" fill="#AA7B49"/>
<path id="Vector_2" d="M16 30L9.824 26.707C8.06319 25.7705 6.5907 24.3721 5.56463 22.6619C4.53856 20.9517 3.99766 18.9944 4 17V4C4 3.46957 4.21071 2.96086 4.58579 2.58579C4.96086 2.21071 5.46957 2 6 2H26C26.5304 2 27.0391 2.21071 27.4142 2.58579C27.7893 2.96086 28 3.46957 28 4V17C28.0023 18.9944 27.4614 20.9517 26.4354 22.6619C25.4093 24.3721 23.9368 25.7705 22.176 26.707L16 30ZM6 4V17C5.99889 18.6317 6.44188 20.2329 7.28148 21.632C8.12108 23.0311 9.32563 24.1753 10.766 24.942L16 27.733L21.234 24.943C22.6745 24.1763 23.8792 23.0319 24.7188 21.6326C25.5584 20.2333 26.0013 18.6319 26 17V4H6Z" fill="#AA7B49"/>
</g>
</svg>
