<svg preserveAspectRatio="none" width="100%" height="100%" overflow="visible" style="display: block;" viewBox="0 0 32 32" fill="none" xmlns="http://www.w3.org/2000/svg">
<g id="teenyicons:safari-outline" clip-path="url(#clip0_0_152)">
<path id="Vector" d="M7.46667 24.5333L6.55147 23.9851C6.42907 24.1891 6.37837 24.4281 6.40743 24.6642C6.43649 24.9003 6.54365 25.1199 6.71186 25.2881C6.88007 25.4564 7.09969 25.5635 7.3358 25.5926C7.5719 25.6216 7.81095 25.5709 8.01493 25.4485L7.46667 24.5333ZM13.8667 13.8667L13.3184 12.9515L13.0901 13.0901L12.9515 13.3184L13.8667 13.8667ZM24.5333 7.46667L25.4485 8.01493C25.5709 7.81095 25.6216 7.5719 25.5926 7.3358C25.5635 7.09969 25.4564 6.88007 25.2881 6.71186C25.1199 6.54365 24.9003 6.43649 24.6642 6.40743C24.4281 6.37837 24.1891 6.42907 23.9851 6.55147L24.5333 7.46667ZM18.1333 18.1333L18.6816 19.0485L18.9099 18.9099L19.0485 18.6816L18.1333 18.1333ZM29.8667 16C29.8667 17.821 29.508 19.6242 28.8111 21.3065C28.1143 22.9889 27.0929 24.5176 25.8052 25.8052C24.5176 27.0929 22.9889 28.1143 21.3065 28.8111C19.6242 29.508 17.821 29.8667 16 29.8667V32C20.2435 32 24.3131 30.3143 27.3137 27.3137C30.3143 24.3131 32 20.2435 32 16H29.8667ZM16 29.8667C12.3223 29.8667 8.79529 28.4057 6.19479 25.8052C3.59428 23.2047 2.13333 19.6777 2.13333 16H0C0 20.2435 1.68571 24.3131 4.68629 27.3137C7.68687 30.3143 11.7565 32 16 32V29.8667ZM2.13333 16C2.13333 12.3223 3.59428 8.79529 6.19479 6.19479C8.79529 3.59428 12.3223 2.13333 16 2.13333V0C11.7565 0 7.68687 1.68571 4.68629 4.68629C1.68571 7.68687 0 11.7565 0 16H2.13333ZM16 2.13333C17.821 2.13333 19.6242 2.49201 21.3065 3.18887C22.9889 3.88574 24.5176 4.90715 25.8052 6.19479C27.0929 7.48243 28.1143 9.01108 28.8111 10.6935C29.508 12.3758 29.8667 14.179 29.8667 16H32C32 11.7565 30.3143 7.68687 27.3137 4.68629C24.3131 1.68571 20.2435 0 16 0V2.13333ZM8.38187 25.0816L14.7819 14.4149L12.9515 13.3184L6.55147 23.9851L8.38187 25.0816ZM14.4149 14.784L25.0816 8.384L23.9851 6.55147L13.3184 12.9515L14.4149 14.784ZM23.6181 6.92053L17.2181 17.5872L19.0485 18.6837L25.4485 8.01493L23.6181 6.92053ZM17.5851 17.216L6.9184 23.616L8.01493 25.4485L18.6816 19.0485L17.5851 17.216Z" fill="#AA7B49"/>
</g>
<defs>
<clipPath id="clip0_0_152">
<rect width="32" height="32" fill="white"/>
</clipPath>
</defs>
</svg>
