<svg preserveAspectRatio="none" width="100%" height="100%" overflow="visible" style="display: block;" viewBox="0 0 39.9999 40" fill="none" xmlns="http://www.w3.org/2000/svg">
<g id="Logo">
<path id="Vector" d="M19.9999 40C31.0459 40 39.9999 31.046 39.9999 20V6.00002C39.9999 4.40873 39.3678 2.8826 38.2426 1.75738C37.1174 0.632166 35.5912 2.47955e-05 33.9999 2.47955e-05L20.9999 2.47955e-05V8.77402C20.9999 10.776 21.1219 12.85 22.1719 14.554C22.9236 15.7752 23.9292 16.8205 25.1204 17.6188C26.3117 18.4172 27.6607 18.95 29.0759 19.181L29.4589 19.243C29.6168 19.297 29.7539 19.399 29.851 19.5347C29.948 19.6705 30.0002 19.8332 30.0002 20C30.0002 20.1669 29.948 20.3296 29.851 20.4653C29.7539 20.6011 29.6168 20.7031 29.4589 20.757L29.0759 20.819C27.0081 21.1568 25.0986 22.1356 23.6171 23.6171C22.1355 25.0987 21.1567 27.0082 20.8189 29.076L20.7569 29.459C20.703 29.6169 20.601 29.754 20.4652 29.851C20.3295 29.9481 20.1668 30.0003 19.9999 30.0003C19.8331 30.0003 19.6704 29.9481 19.5346 29.851C19.3989 29.754 19.2969 29.6169 19.2429 29.459L19.1809 29.076C18.9498 27.6608 18.417 26.3118 17.6187 25.1206C16.8203 23.9293 15.7751 22.9238 14.5539 22.172C12.8499 21.122 10.7759 21 8.77394 21H0.023943C0.546943 31.581 9.28994 40 19.9999 40Z" fill="#02264F"/>
<path id="Vector_2" d="M0 19H8.774C10.776 19 12.85 18.878 14.554 17.828C15.886 17.0073 17.0073 15.886 17.828 14.554C18.878 12.85 19 10.776 19 8.774V0H6C4.4087 0 2.88258 0.632141 1.75736 1.75736C0.632141 2.88258 0 4.4087 0 6L0 19Z" fill="#02264F"/>
</g>
</svg>
