<svg preserveAspectRatio="none" width="100%" height="100%" overflow="visible" style="display: block;" viewBox="0 0 35.0001 40" fill="none" xmlns="http://www.w3.org/2000/svg">
<g id="Group 1295">
<path id="Vector" fill-rule="evenodd" clip-rule="evenodd" d="M19.773 4.56701L22.3971 0L29.8365 4.31701L27.2134 8.88303C26.7526 9.68403 27.4423 10.658 28.3458 10.483L33.3731 9.50803L35.0001 17.9851L29.9728 18.9591C21.8408 20.5351 15.6323 11.775 19.773 4.56701Z" fill="#02264F"/>
<path id="Vector_2" fill-rule="evenodd" clip-rule="evenodd" d="M15.2271 35.4329L12.603 39.9999L5.16261 35.6839L7.7867 31.1169C8.24744 30.3159 7.55783 29.3419 6.65328 29.5169L1.627 30.4909L0 22.0149L5.02727 21.0409C13.1593 19.4649 19.3667 28.2249 15.2271 35.4329Z" fill="#02264F"/>
<path id="Vector_3" fill-rule="evenodd" clip-rule="evenodd" d="M15.4541 4.56701L12.831 0L5.39059 4.31701L8.01468 8.88303C8.47442 9.68403 7.78581 10.658 6.88126 10.483L1.85398 9.50803L0.228976 17.9851L5.25525 18.9591C13.3883 20.5351 19.5967 11.775 15.4551 4.56701H15.4541Z" fill="#02264F"/>
<path id="Vector_4" fill-rule="evenodd" clip-rule="evenodd" d="M19.554 35.4329L22.1761 39.9999L29.6165 35.6839L26.9924 31.1169C26.5326 30.3159 27.2213 29.3419 28.1258 29.5169L33.1521 30.4909L34.7791 22.0149L29.7518 21.0409C21.6198 19.4649 15.4123 28.2249 19.552 35.4329H19.554Z" fill="#02264F"/>
</g>
</svg>
